<?xml version="1.0" encoding="UTF-8" standalone="no"?>
<!DOCTYPE svg PUBLIC "-//W3C//DTD SVG 1.1//EN" "http://www.w3.org/Graphics/SVG/1.1/DTD/svg11.dtd">
<svg width="100%" height="100%" viewBox="0 0 73 206" version="1.1" xmlns="http://www.w3.org/2000/svg" xmlns:xlink="http://www.w3.org/1999/xlink" xml:space="preserve" xmlns:serif="http://www.serif.com/" style="fill-rule:evenodd;clip-rule:evenodd;stroke-linecap:round;stroke-linejoin:round;stroke-miterlimit:1.5;">
    <g id="_0" serif:id="0" transform="matrix(1,0,0,1,-213.194,-354.625)">
        <g transform="matrix(1.12405,0,0,1.05307,208.744,348.992)">
            <path d="M59.835,35.538C59.835,28.481 54.468,22.752 47.856,22.752L23.899,22.752C17.288,22.752 11.921,28.481 11.921,35.538L11.921,176.797C11.921,183.854 17.288,189.583 23.899,189.583L47.856,189.583C54.468,189.583 59.835,183.854 59.835,176.797L59.835,35.538Z" style="fill:none;stroke:black;stroke-width:0.92px;"/>
        </g>
        <g>
            <g id="CIRCLE" transform="matrix(1.22337,0,0,1.22337,-55.7186,-90.8593)">
                <path d="M249.449,412.564C252.646,412.564 255.242,409.969 255.242,406.772C255.242,403.575 252.646,400.979 249.449,400.979C246.252,400.979 243.656,403.575 243.656,406.772C243.656,409.969 246.252,412.564 249.449,412.564Z" style="fill:none;stroke:black;stroke-width:0.58px;stroke-miterlimit:2;"/>
            </g>
            <g transform="matrix(-6.12323e-17,-1,-1,6.12323e-17,225.879,425.106)">
                <path d="M0,-19.417L9.354,-19.417C10.593,-19.417 11.689,-18.614 12.063,-17.433C12.749,-15.259 14.612,-13.665 16.866,-13.322L22.184,-13.322C22.409,-13.322 22.625,-13.233 22.784,-13.073L24.696,-11.162C24.855,-11.003 24.945,-10.786 24.945,-10.561L24.945,-9.372L29.755,-9.372L29.755,-4.104L24.945,-4.104L24.945,-2.762C24.945,-2.536 24.855,-2.319 24.696,-2.16L22.784,-0.249C22.625,-0.09 22.409,0 22.184,0L14.384,0C14.158,0 13.942,-0.09 13.782,-0.249L11.871,-2.16C11.712,-2.319 11.622,-2.536 11.622,-2.762L11.622,-3.26C11.469,-5.023 9.991,-6.378 8.221,-6.378L4.557,-6.378C3.993,-5.828 3.094,-5.828 2.53,-6.378L0,-6.378C-1.252,-6.378 -2.268,-7.393 -2.268,-8.646L-2.268,-10.222L-7.087,-10.222L-7.087,-15.607L-2.268,-15.607L-2.268,-17.149C-2.268,-18.401 -1.252,-19.417 0,-19.417Z" style="fill:none;fill-rule:nonzero;stroke:black;stroke-width:0.28px;stroke-linecap:butt;stroke-linejoin:miter;stroke-miterlimit:10;"/>
            </g>
        </g>
        <g transform="matrix(-1,-1.22465e-16,1.22465e-16,-1,498.909,867.373)">
            <g id="CIRCLE1" serif:id="CIRCLE" transform="matrix(1.22337,0,0,1.22337,-55.7186,-90.8593)">
                <path d="M249.449,412.564C252.646,412.564 255.242,409.969 255.242,406.772C255.242,403.575 252.646,400.979 249.449,400.979C246.252,400.979 243.656,403.575 243.656,406.772C243.656,409.969 246.252,412.564 249.449,412.564Z" style="fill:none;stroke:black;stroke-width:0.58px;stroke-miterlimit:2;"/>
            </g>
            <g transform="matrix(-6.12323e-17,-1,-1,6.12323e-17,225.879,425.106)">
                <path d="M0,-19.417L9.354,-19.417C10.593,-19.417 11.689,-18.614 12.063,-17.433C12.749,-15.259 14.612,-13.665 16.866,-13.322L22.184,-13.322C22.409,-13.322 22.625,-13.233 22.784,-13.073L24.696,-11.162C24.855,-11.003 24.945,-10.786 24.945,-10.561L24.945,-9.372L29.755,-9.372L29.755,-4.104L24.945,-4.104L24.945,-2.762C24.945,-2.536 24.855,-2.319 24.696,-2.16L22.784,-0.249C22.625,-0.09 22.409,0 22.184,0L14.384,0C14.158,0 13.942,-0.09 13.782,-0.249L11.871,-2.16C11.712,-2.319 11.622,-2.536 11.622,-2.762L11.622,-3.26C11.469,-5.023 9.991,-6.378 8.221,-6.378L4.557,-6.378C3.993,-5.828 3.094,-5.828 2.53,-6.378L0,-6.378C-1.252,-6.378 -2.268,-7.393 -2.268,-8.646L-2.268,-10.222L-7.087,-10.222L-7.087,-15.607L-2.268,-15.607L-2.268,-17.149C-2.268,-18.401 -1.252,-19.417 0,-19.417Z" style="fill:none;fill-rule:nonzero;stroke:black;stroke-width:0.28px;stroke-linecap:butt;stroke-linejoin:miter;stroke-miterlimit:10;"/>
            </g>
        </g>
        <g transform="matrix(-1,-1.22465e-16,1.22465e-16,-1,498.909,921.223)">
            <g id="CIRCLE2" serif:id="CIRCLE" transform="matrix(1.22337,0,0,1.22337,-55.7186,-90.8593)">
                <path d="M249.449,412.564C252.646,412.564 255.242,409.969 255.242,406.772C255.242,403.575 252.646,400.979 249.449,400.979C246.252,400.979 243.656,403.575 243.656,406.772C243.656,409.969 246.252,412.564 249.449,412.564Z" style="fill:none;stroke:black;stroke-width:0.58px;stroke-miterlimit:2;"/>
            </g>
            <g transform="matrix(-6.12323e-17,-1,-1,6.12323e-17,225.879,425.106)">
                <path d="M0,-19.417L9.354,-19.417C10.593,-19.417 11.689,-18.614 12.063,-17.433C12.749,-15.259 14.612,-13.665 16.866,-13.322L22.184,-13.322C22.409,-13.322 22.625,-13.233 22.784,-13.073L24.696,-11.162C24.855,-11.003 24.945,-10.786 24.945,-10.561L24.945,-9.372L29.755,-9.372L29.755,-4.104L24.945,-4.104L24.945,-2.762C24.945,-2.536 24.855,-2.319 24.696,-2.16L22.784,-0.249C22.625,-0.09 22.409,0 22.184,0L14.384,0C14.158,0 13.942,-0.09 13.782,-0.249L11.871,-2.16C11.712,-2.319 11.622,-2.536 11.622,-2.762L11.622,-3.26C11.469,-5.023 9.991,-6.378 8.221,-6.378L4.557,-6.378C3.993,-5.828 3.094,-5.828 2.53,-6.378L0,-6.378C-1.252,-6.378 -2.268,-7.393 -2.268,-8.646L-2.268,-10.222L-7.087,-10.222L-7.087,-15.607L-2.268,-15.607L-2.268,-17.149C-2.268,-18.401 -1.252,-19.417 0,-19.417Z" style="fill:none;fill-rule:nonzero;stroke:black;stroke-width:0.28px;stroke-linecap:butt;stroke-linejoin:miter;stroke-miterlimit:10;"/>
            </g>
        </g>
        <path id="LWPOLYLINE" d="M254.409,543.883L244.488,543.883L244.426,543.871L244.364,543.875L243.809,543.802L243.69,543.762L243.568,543.737L243.051,543.523L242.947,543.454L242.835,543.398L242.391,543.058L242.309,542.964L242.215,542.881L241.874,542.437L241.819,542.325L241.749,542.222L241.535,541.704L241.511,541.582L241.471,541.464L241.398,540.909L241.406,540.784L241.398,540.66L241.471,540.105L241.511,539.986L241.535,539.864L241.749,539.347L241.819,539.243L241.874,539.131L242.215,538.687L242.309,538.605L242.391,538.511L242.835,538.17L242.947,538.115L243.051,538.046L243.568,537.831L243.69,537.807L243.809,537.767L244.364,537.694L244.426,537.698L244.488,537.686L254.409,537.686L254.471,537.698L254.534,537.694L255.089,537.767L255.207,537.807L255.33,537.831L255.847,538.046L255.951,538.115L256.063,538.17L256.507,538.511L256.589,538.605L256.683,538.687L257.024,539.131L257.079,539.243L257.148,539.347L257.362,539.864L257.387,539.986L257.427,540.105L257.5,540.66L257.492,540.784L257.5,540.909L257.427,541.464L257.387,541.582L257.362,541.704L257.148,542.222L257.079,542.325L257.024,542.437L256.683,542.881L256.589,542.964L256.507,543.058L256.063,543.398L255.951,543.454L255.847,543.523L255.33,543.737L255.207,543.762L255.089,543.802L254.534,543.875L254.471,543.871L254.409,543.883Z" style="fill:none;stroke:black;stroke-width:0.71px;stroke-miterlimit:2;"/>
        <path id="LWPOLYLINE1" serif:id="LWPOLYLINE" d="M244.488,377.377L254.409,377.377L254.471,377.389L254.534,377.385L255.089,377.458L255.207,377.498L255.33,377.523L255.847,377.737L255.951,377.806L256.063,377.861L256.507,378.202L256.589,378.296L256.683,378.378L257.024,378.822L257.079,378.934L257.148,379.038L257.362,379.555L257.387,379.678L257.427,379.796L257.5,380.351L257.492,380.476L257.5,380.6L257.427,381.155L257.387,381.273L257.362,381.396L257.148,381.913L257.079,382.017L257.024,382.129L256.683,382.573L256.589,382.655L256.507,382.749L256.063,383.09L255.951,383.145L255.847,383.214L255.33,383.429L255.207,383.453L255.089,383.493L254.534,383.566L254.471,383.562L254.409,383.574L244.488,383.574L244.426,383.562L244.364,383.566L243.809,383.493L243.69,383.453L243.568,383.429L243.051,383.214L242.947,383.145L242.835,383.09L242.391,382.749L242.309,382.655L242.215,382.573L241.874,382.129L241.819,382.017L241.749,381.913L241.535,381.396L241.511,381.273L241.471,381.155L241.398,380.6L241.406,380.476L241.398,380.351L241.471,379.796L241.511,379.678L241.535,379.555L241.749,379.038L241.819,378.934L241.874,378.822L242.215,378.378L242.309,378.296L242.391,378.202L242.835,377.861L242.947,377.806L243.051,377.737L243.568,377.523L243.69,377.498L243.809,377.458L244.364,377.385L244.426,377.389L244.488,377.377Z" style="fill:none;stroke:black;stroke-width:0.71px;stroke-miterlimit:2;"/>
    </g>
</svg>
